<svg xmlns="http://www.w3.org/2000/svg" xmlns:xlink="http://www.w3.org/1999/xlink" contentStyleType="text/css" data-diagram-type="DESCRIPTION" height="638px" preserveAspectRatio="none" style="width:827px;height:638px;background:#FFFFFF;" version="1.1" viewBox="0 0 827 638" width="827px" zoomAndPan="magnify"><defs/><g><!--cluster Syst?me de Gestion d'?v?nements--><g id="cluster_Syst&#232;me de Gestion d'&#201;v&#233;nements"><rect fill="transparent" height="625" rx="2.5" ry="2.5" style="stroke:#181818;stroke-width:1;" width="570" x="251" y="7"/><text fill="#000000" font-family="sans-serif" font-size="14" font-weight="bold" lengthAdjust="spacing" textLength="273.376" x="399.312" y="21.9951">Syst&#232;me de Gestion d'&#201;v&#233;nements</text></g><g id="elem_UC1"><ellipse cx="373.8417" cy="128.1683" fill="#FFFFFF" rx="91.3417" ry="20.6683" style="stroke:#333333;stroke-width:0.5;"/><text fill="#000000" font-family="sans-serif" font-size="14" lengthAdjust="spacing" textLength="144.7715" x="301.4559" y="131.015">Cr&#233;er un &#233;v&#233;nement</text></g><g id="elem_UC2"><ellipse cx="373.9597" cy="205.7919" fill="#FFFFFF" rx="99.4597" ry="22.2919" style="stroke:#333333;stroke-width:0.5;"/><text fill="#000000" font-family="sans-serif" font-size="14" lengthAdjust="spacing" textLength="162.8662" x="292.5266" y="208.6386">Modifier un &#233;v&#233;nement</text></g><g id="elem_UC3"><ellipse cx="374.0316" cy="287.8063" fill="#FFFFFF" rx="107.0316" ry="23.8063" style="stroke:#333333;stroke-width:0.5;"/><text fill="#000000" font-family="sans-serif" font-size="14" lengthAdjust="spacing" textLength="179.4434" x="284.3099" y="290.653">Supprimer un &#233;v&#233;nement</text></g><g id="elem_UC4"><ellipse cx="374.1599" cy="369.032" fill="#FFFFFF" rx="95.6599" ry="21.532" style="stroke:#333333;stroke-width:0.5;"/><text fill="#000000" font-family="sans-serif" font-size="14" lengthAdjust="spacing" textLength="154.4443" x="296.9377" y="371.8787">Lister les &#233;v&#233;nements</text></g><g id="elem_UC5"><ellipse cx="373.9938" cy="447.7988" fill="#FFFFFF" rx="99.4938" ry="22.2988" style="stroke:#333333;stroke-width:0.5;"/><text fill="#000000" font-family="sans-serif" font-size="14" lengthAdjust="spacing" textLength="162.9414" x="292.5231" y="450.6454">Voir d&#233;tails &#233;v&#233;nement</text></g><g id="elem_UC7"><ellipse cx="374.2422" cy="521.8484" fill="#FFFFFF" rx="69.7422" ry="16.3484" style="stroke:#333333;stroke-width:0.5;"/><text fill="#000000" font-family="sans-serif" font-size="14" lengthAdjust="spacing" textLength="92.1279" x="325.1783" y="525.596">Se connecter</text></g><g id="elem_UC8"><ellipse cx="374.0486" cy="595.2097" fill="#FFFFFF" rx="94.0486" ry="21.2097" style="stroke:#333333;stroke-width:0.5;"/><text fill="#000000" font-family="sans-serif" font-size="14" lengthAdjust="spacing" textLength="150.8486" x="298.6243" y="598.0564">Lister les participants</text></g><g id="elem_UC6"><ellipse cx="374.2027" cy="56.7593" fill="#FFFFFF" rx="58.2027" ry="14.7593" style="stroke:#333333;stroke-width:0.5;"/><text fill="#000000" font-family="sans-serif" font-size="14" lengthAdjust="spacing" textLength="64.5039" x="338.9507" y="60.5068">S'inscrire</text></g><g id="elem_UC6a"><ellipse cx="697.6056" cy="237.1211" fill="#FFFFFF" rx="93.6056" ry="21.1211" style="stroke:#333333;stroke-width:0.5;"/><text fill="#000000" font-family="sans-serif" font-size="14" lengthAdjust="spacing" textLength="149.8574" x="622.6769" y="239.9678">V&#233;rifier capacit&#233; max</text></g><g id="elem_UC6b"><ellipse cx="697.6294" cy="156.9259" fill="#FFFFFF" rx="107.6294" ry="23.9259" style="stroke:#333333;stroke-width:0.5;"/><text fill="#000000" font-family="sans-serif" font-size="14" lengthAdjust="spacing" textLength="180.7422" x="607.2583" y="159.7726">V&#233;rifier double inscription</text></g><g id="elem_GMN28"><path d="M591,42.5 L591,61.72 L431.37,59.28 L591,69.72 L591,97.8984 A0,0 0 0 0 591,97.8984 L804.1118,97.8984 A0,0 0 0 0 804.1118,97.8984 L804.1118,52.5 L794.1118,42.5 L591,42.5 A0,0 0 0 0 591,42.5 " fill="#FEFFDD" style="stroke:#181818;stroke-width:0.5;"/><path d="M794.1118,42.5 L794.1118,52.5 L804.1118,52.5 L794.1118,42.5 " fill="#FEFFDD" style="stroke:#181818;stroke-width:0.5;"/><text fill="#000000" font-family="sans-serif" font-size="13" lengthAdjust="spacing" textLength="119.3359" x="597" y="59.5669">Le syst&#232;me v&#233;rifie</text><text fill="#000000" font-family="sans-serif" font-size="13" lengthAdjust="spacing" textLength="192.1118" x="597" y="74.6997">automatiquement la capacit&#233;</text><text fill="#000000" font-family="sans-serif" font-size="13" lengthAdjust="spacing" textLength="99.0171" x="597" y="89.8325">et les doublons</text></g><!--entity P--><g id="elem_P"><ellipse cx="38.5151" cy="377.5" fill="#F1F1F1" rx="8" ry="8" style="stroke:#181818;stroke-width:0.5;"/><path d="M38.5151,385.5 L38.5151,412.5 M25.5151,393.5 L51.5151,393.5 M38.5151,412.5 L25.5151,427.5 M38.5151,412.5 L51.5151,427.5 " fill="transparent" style="stroke:#181818;stroke-width:0.5;"/><text fill="#000000" font-family="sans-serif" font-size="14" lengthAdjust="spacing" textLength="65.0303" x="6" y="441.9951">Personne</text></g><!--entity U--><g id="elem_U"><ellipse cx="168.0049" cy="96.5" fill="#F1F1F1" rx="8" ry="8" style="stroke:#181818;stroke-width:0.5;"/><path d="M168.0049,104.5 L168.0049,131.5 M155.0049,112.5 L181.0049,112.5 M168.0049,131.5 L155.0049,146.5 M168.0049,131.5 L181.0049,146.5 " fill="transparent" style="stroke:#181818;stroke-width:0.5;"/><text fill="#000000" font-family="sans-serif" font-size="14" lengthAdjust="spacing" textLength="72.0098" x="132" y="160.9951">Utilisateur</text></g><!--entity A--><g id="elem_A"><ellipse cx="167.9321" cy="230.5" fill="#F1F1F1" rx="8" ry="8" style="stroke:#181818;stroke-width:0.5;"/><path d="M167.9321,238.5 L167.9321,265.5 M154.9321,246.5 L180.9321,246.5 M167.9321,265.5 L154.9321,280.5 M167.9321,265.5 L180.9321,280.5 " fill="transparent" style="stroke:#181818;stroke-width:0.5;"/><text fill="#000000" font-family="sans-serif" font-size="14" lengthAdjust="spacing" textLength="44.8643" x="145.5" y="294.9951">Admin</text></g><!--reverse link P to U--><g id="link_P_U"><path d="M64.2663,352.4179 C88.6363,298.6979 125.36,217.78 149.71,164.11 " fill="transparent" id="P-backto-U" style="stroke:#333333;stroke-width:1;"/><polygon fill="transparent" points="56.83,368.81,69.7303,354.8966,58.8022,349.9391,56.83,368.81" style="stroke:#333333;stroke-width:1;"/></g><!--reverse link P to A--><g id="link_P_A"><path d="M82.8142,357.0623 C105.9642,330.3723 125.03,308.39 145.43,284.87 " fill="transparent" id="P-backto-A" style="stroke:#333333;stroke-width:1;"/><polygon fill="transparent" points="71.02,370.66,87.3467,360.9937,78.2816,353.1309,71.02,370.66" style="stroke:#333333;stroke-width:1;"/></g><!--link A to UC1--><g id="link_A_UC1"><path d="M190.71,222.3 C203.63,202.92 221.66,180.42 243,166 C260.24,154.35 275.3287,147.8507 295.2387,142.1907 " fill="transparent" id="A-to-UC1" style="stroke:#333333;stroke-width:1;"/><polygon fill="#333333" points="301.01,140.55,291.2592,139.1635,296.2006,141.9172,293.4468,146.8586,301.01,140.55" style="stroke:#333333;stroke-width:1;"/></g><!--link A to UC2--><g id="link_A_UC2"><path d="M190.83,254.22 C218.69,246.85 262.2898,235.3056 302.6298,224.6256 " fill="transparent" id="A-to-UC2" style="stroke:#333333;stroke-width:1;"/><polygon fill="#333333" points="308.43,223.09,298.706,221.5266,303.5965,224.3697,300.7535,229.2602,308.43,223.09" style="stroke:#333333;stroke-width:1;"/></g><!--link A to UC3--><g id="link_A_UC3"><path d="M190.83,263 C212.83,266.02 242.3157,270.064 276.1157,274.704 " fill="transparent" id="A-to-UC3" style="stroke:#333333;stroke-width:1;"/><polygon fill="#333333" points="282.06,275.52,273.6876,270.3331,277.1065,274.84,272.5996,278.2588,282.06,275.52" style="stroke:#333333;stroke-width:1;"/></g><!--link P to UC4--><g id="link_P_UC4"><path d="M71.18,403.39 C120.6,397.76 211.7785,387.369 282.5485,379.309 " fill="transparent" id="P-to-UC4" style="stroke:#333333;stroke-width:1;"/><polygon fill="#333333" points="288.51,378.63,279.1152,375.6741,283.5421,379.1958,280.0204,383.6227,288.51,378.63" style="stroke:#333333;stroke-width:1;"/></g><!--link P to UC5--><g id="link_P_UC5"><path d="M71.18,410.89 C120.03,416.9 209.5548,427.9081 280.0948,436.5781 " fill="transparent" id="P-to-UC5" style="stroke:#333333;stroke-width:1;"/><polygon fill="#333333" points="286.05,437.31,277.6052,432.242,281.0873,436.7,276.6293,440.1822,286.05,437.31" style="stroke:#333333;stroke-width:1;"/></g><!--link P to UC7--><g id="link_P_UC7"><path d="M71.13,421 C110.77,438.22 181.04,467.65 243,488 C269.26,496.63 293.2447,503.1127 317.6847,509.1427 " fill="transparent" id="P-to-UC7" style="stroke:#333333;stroke-width:1;"/><polygon fill="#333333" points="323.51,510.58,315.7302,504.5406,318.6556,509.3823,313.8139,512.3077,323.51,510.58" style="stroke:#333333;stroke-width:1;"/></g><!--link P to UC8--><g id="link_P_UC8"><path d="M71.17,436.31 C109.2,469.98 176.24,524.59 243,556 C263.68,565.73 281.5807,572.0424 303.0107,578.1624 " fill="transparent" id="P-to-UC8" style="stroke:#333333;stroke-width:1;"/><polygon fill="#333333" points="308.78,579.81,301.2244,573.4923,303.9722,578.437,299.0276,581.1848,308.78,579.81" style="stroke:#333333;stroke-width:1;"/></g><!--link U to UC6--><g id="link_U_UC6"><path d="M204.12,107.1 C216.21,101.08 229.99,94.76 243,90 C270.55,79.92 296.6256,73.0838 321.9356,67.4038 " fill="transparent" id="U-to-UC6" style="stroke:#333333;stroke-width:1;"/><polygon fill="#333333" points="327.79,66.09,318.1325,64.1578,322.9113,67.1849,319.8843,71.9637,327.79,66.09" style="stroke:#333333;stroke-width:1;"/></g><!--link UC6 to UC6a--><g id="link_UC6_UC6a"><path d="M424.06,64.66 C443.27,69.5 464.59,77.35 481,90 C500.92,105.36 494.04,119.42 511,138 C540.73,170.56 551.31,176.85 590,198 C605.89,206.69 618.4705,212.1492 635.3005,218.1692 " fill="transparent" id="UC6-to-UC6a" style="stroke:#333333;stroke-width:1;stroke-dasharray:7.0,7.0;"/><polygon fill="#333333" points="640.95,220.19,633.823,213.3925,636.2421,218.506,631.1286,220.9251,640.95,220.19" style="stroke:#333333;stroke-width:1;"/><text fill="#000000" font-family="sans-serif" font-size="13" lengthAdjust="spacing" textLength="47.0996" x="512" y="134.0669">include</text></g><!--link UC6 to UC6b--><g id="link_UC6_UC6b"><path d="M411.88,68.47 C466.06,85.32 562.1508,115.2078 628.1808,135.7478 " fill="transparent" id="UC6-to-UC6b" style="stroke:#333333;stroke-width:1;stroke-dasharray:7.0,7.0;"/><polygon fill="#333333" points="633.91,137.53,626.5043,131.0372,629.1357,136.0448,624.1281,138.6762,633.91,137.53" style="stroke:#333333;stroke-width:1;"/><text fill="#000000" font-family="sans-serif" font-size="13" lengthAdjust="spacing" textLength="47.0996" x="512" y="98.0669">include</text></g><!--SRC=[TPB1JXin48Rl-nIZz41w2184GeKgf913BrIA5AMzS9dOap1YrrxiMTggvG7w9jtds1UhxNLWWq3oOUQVJpEUtovfAo0M7E_k13GxKiBM5FwUJOqEAsWyAVG4lmk0QrJtEsSRenUsj0w-tx5GrAtJv7hjmtGw3TBSEVjZe3mL1Ie9sMX9pbjZQ0JeOGbPNWkNx56eSL5VPtckApPHc1V54Zx_cKn2AGT1YjT5ioi9HgjVNhf_5O4c-48-RW7wgFlxsBM6AZBYHsc7yS9rBJbe37JjS_5Z6heuYS1NgtdBxo6d4LarTUsuUe-91enls4i0Il93mcVaB2BVB3lGNIl8fN-ZptcQHQ2YNofqo_h5g_xXfOGLr_ZI_rD0-ZDU7R7noeMtpRLPcjsrhbzJOOsAfMkXmfzx10yPRPjDSBblL4Tpz-2cdpA7oUGgExYFJmVnzFa-owoS3PFpON8nYFCUwvpEShgOmV5n4X0kmxLKsMWwB6mE2k4OAvG_kjqcyX9k2Fp-uppcRMyDDc8h57veqcj0YIyctHgIP7gon1fVFFq7]--></g></svg>